<?xml version="1.0" encoding="UTF-8"?>
<svg id="Camada_2" data-name="Camada 2" xmlns="http://www.w3.org/2000/svg" xmlns:xlink="http://www.w3.org/1999/xlink" viewBox="0 0 161.01 70.05">
  <defs>
    <style>
      .cls-1 {
        fill: url(#Gradiente_sem_nome_25-15);
      }

      .cls-1, .cls-2, .cls-3, .cls-4, .cls-5, .cls-6, .cls-7, .cls-8, .cls-9, .cls-10, .cls-11, .cls-12, .cls-13, .cls-14, .cls-15, .cls-16, .cls-17, .cls-18, .cls-19, .cls-20, .cls-21, .cls-22, .cls-23, .cls-24, .cls-25, .cls-26, .cls-27, .cls-28, .cls-29, .cls-30, .cls-31, .cls-32 {
        stroke-width: 0px;
      }

      .cls-2 {
        fill: url(#Gradiente_sem_nome_25-2);
      }

      .cls-3 {
        fill: url(#Gradiente_sem_nome_25-8);
      }

      .cls-4 {
        fill: url(#Gradiente_sem_nome_30-2);
      }

      .cls-5 {
        fill: url(#Gradiente_sem_nome_25-17);
      }

      .cls-6 {
        fill: url(#Gradiente_sem_nome_25-14);
      }

      .cls-7 {
        fill: #58595b;
      }

      .cls-8 {
        fill: url(#Gradiente_sem_nome_25-19);
      }

      .cls-9 {
        fill: url(#Gradiente_sem_nome_25-7);
      }

      .cls-10 {
        fill: url(#Gradiente_sem_nome_27-2);
      }

      .cls-11 {
        fill: url(#Gradiente_sem_nome_25-3);
      }

      .cls-12 {
        fill: url(#Gradiente_sem_nome_25-13);
      }

      .cls-13 {
        fill: none;
      }

      .cls-33 {
        clip-path: url(#clippath-1);
      }

      .cls-14 {
        fill: url(#Gradiente_sem_nome_25-16);
      }

      .cls-15 {
        fill: url(#Gradiente_sem_nome_25-10);
      }

      .cls-16 {
        fill: url(#Gradiente_sem_nome_25-18);
      }

      .cls-17 {
        fill: url(#Gradiente_sem_nome_25);
      }

      .cls-18 {
        fill: url(#Gradiente_sem_nome_25-6);
      }

      .cls-19 {
        fill: url(#Gradiente_sem_nome_25-22);
      }

      .cls-20 {
        fill: url(#Gradiente_sem_nome_25-12);
      }

      .cls-21 {
        fill: url(#Gradiente_sem_nome_30);
      }

      .cls-22 {
        fill: url(#Gradiente_sem_nome_25-21);
      }

      .cls-34 {
        clip-path: url(#clippath);
      }

      .cls-23 {
        fill: url(#Gradiente_sem_nome_27);
      }

      .cls-24 {
        fill: url(#Gradiente_sem_nome);
      }

      .cls-25 {
        fill: #d1d3d4;
      }

      .cls-26 {
        fill: url(#Gradiente_sem_nome_25-11);
      }

      .cls-27 {
        fill: url(#Gradiente_sem_nome_25-23);
      }

      .cls-28 {
        fill: url(#Gradiente_sem_nome_25-4);
      }

      .cls-29 {
        fill: url(#Gradiente_sem_nome_25-20);
      }

      .cls-30 {
        fill: url(#Gradiente_sem_nome_28);
      }

      .cls-31 {
        fill: url(#Gradiente_sem_nome_25-5);
      }

      .cls-32 {
        fill: url(#Gradiente_sem_nome_25-9);
      }
    </style>
    <clipPath id="clippath">
      <rect class="cls-13" width="161.01" height="70.05"/>
    </clipPath>
    <radialGradient id="Gradiente_sem_nome" data-name="Gradiente sem nome" cx="-863.39" cy="598.45" fx="-863.39" fy="598.45" r="1" gradientTransform="translate(207060.79 140133.04) scale(239.72 -233.75)" gradientUnits="userSpaceOnUse">
      <stop offset="0" stop-color="#000"/>
      <stop offset=".7" stop-color="#003"/>
      <stop offset=".9" stop-color="#004282"/>
      <stop offset=".95" stop-color="#1aa6df"/>
      <stop offset="1" stop-color="#1aa6df"/>
    </radialGradient>
    <linearGradient id="Gradiente_sem_nome_25" data-name="Gradiente sem nome 25" x1="-878.86" y1="579.23" x2="-877.86" y2="579.23" gradientTransform="translate(24601.3 -37131.04) rotate(-90) scale(42.31 -42.31)" gradientUnits="userSpaceOnUse">
      <stop offset="0" stop-color="#00053e"/>
      <stop offset=".81" stop-color="#003475"/>
      <stop offset="1" stop-color="#006ca9"/>
    </linearGradient>
    <linearGradient id="Gradiente_sem_nome_25-2" data-name="Gradiente sem nome 25" x1="-878.86" y1="579.23" x2="-877.86" y2="579.23" gradientTransform="translate(24602.75 -37132.14) rotate(-90) scale(42.32 -42.32)" xlink:href="#Gradiente_sem_nome_25"/>
    <linearGradient id="Gradiente_sem_nome_25-3" data-name="Gradiente sem nome 25" x1="-884.05" y1="569.77" x2="-883.05" y2="569.77" gradientTransform="translate(16805.55 -25868.25) rotate(-90) scale(29.32 -29.32)" xlink:href="#Gradiente_sem_nome_25"/>
    <linearGradient id="Gradiente_sem_nome_25-4" data-name="Gradiente sem nome 25" x1="-883.83" y1="570.17" x2="-882.83" y2="570.17" gradientTransform="translate(17047.93 -26200.02) rotate(-90) scale(29.7 -29.7)" xlink:href="#Gradiente_sem_nome_25"/>
    <linearGradient id="Gradiente_sem_nome_25-5" data-name="Gradiente sem nome 25" x1="-885.36" y1="567.37" x2="-884.36" y2="567.37" gradientTransform="translate(15544.61 -24027.91) rotate(-90) scale(27.19 -27.19)" xlink:href="#Gradiente_sem_nome_25"/>
    <linearGradient id="Gradiente_sem_nome_25-6" data-name="Gradiente sem nome 25" x1="-884.77" y1="568.46" x2="-883.77" y2="568.46" gradientTransform="translate(16081.61 -24826.53) rotate(-90) scale(28.12 -28.12)" xlink:href="#Gradiente_sem_nome_25"/>
    <linearGradient id="Gradiente_sem_nome_25-7" data-name="Gradiente sem nome 25" x1="-883.85" y1="570.13" x2="-882.85" y2="570.13" gradientTransform="translate(17021.47 -26165.83) rotate(-90) scale(29.66 -29.66)" xlink:href="#Gradiente_sem_nome_25"/>
    <linearGradient id="Gradiente_sem_nome_25-8" data-name="Gradiente sem nome 25" x1="-883.85" y1="570.12" x2="-882.85" y2="570.12" gradientTransform="translate(16992.22 -26160.66) rotate(-90) scale(29.66 -29.66)" xlink:href="#Gradiente_sem_nome_25"/>
    <linearGradient id="Gradiente_sem_nome_25-9" data-name="Gradiente sem nome 25" x1="-883.96" y1="569.92" x2="-882.96" y2="569.92" gradientTransform="translate(16887.63 -25991.15) rotate(-90) scale(29.46 -29.46)" xlink:href="#Gradiente_sem_nome_25"/>
    <linearGradient id="Gradiente_sem_nome_25-10" data-name="Gradiente sem nome 25" x1="-883.84" y1="570.14" x2="-882.84" y2="570.14" gradientTransform="translate(17030.13 -26174.25) rotate(-90) scale(29.67 -29.67)" xlink:href="#Gradiente_sem_nome_25"/>
    <linearGradient id="Gradiente_sem_nome_25-11" data-name="Gradiente sem nome 25" x1="-883.83" y1="570.16" x2="-882.83" y2="570.16" gradientTransform="translate(17032 -26191.46) rotate(-90) scale(29.69 -29.69)" xlink:href="#Gradiente_sem_nome_25"/>
    <linearGradient id="Gradiente_sem_nome_25-12" data-name="Gradiente sem nome 25" x1="-883.85" y1="570.13" x2="-882.85" y2="570.13" gradientTransform="translate(17031.8 -26167.83) rotate(-90) scale(29.66 -29.66)" xlink:href="#Gradiente_sem_nome_25"/>
    <linearGradient id="Gradiente_sem_nome_25-13" data-name="Gradiente sem nome 25" x1="-884.25" y1="569.4" x2="-883.25" y2="569.4" gradientTransform="translate(16583.11 -25561.66) rotate(-90) scale(28.96 -28.96)" xlink:href="#Gradiente_sem_nome_25"/>
    <linearGradient id="Gradiente_sem_nome_25-14" data-name="Gradiente sem nome 25" x1="-883.96" y1="569.92" x2="-882.96" y2="569.92" gradientTransform="translate(16877.89 -25993.66) rotate(-90) scale(29.46 -29.46)" xlink:href="#Gradiente_sem_nome_25"/>
    <linearGradient id="Gradiente_sem_nome_25-15" data-name="Gradiente sem nome 25" x1="-883.85" y1="570.12" x2="-882.85" y2="570.12" gradientTransform="translate(16969.6 -26158.38) rotate(-90) scale(29.65 -29.65)" xlink:href="#Gradiente_sem_nome_25"/>
    <linearGradient id="Gradiente_sem_nome_25-16" data-name="Gradiente sem nome 25" x1="-883.85" y1="570.12" x2="-882.85" y2="570.12" gradientTransform="translate(16984.88 -26161.26) rotate(-90) scale(29.66 -29.66)" xlink:href="#Gradiente_sem_nome_25"/>
    <linearGradient id="Gradiente_sem_nome_25-17" data-name="Gradiente sem nome 25" x1="-883.85" y1="570.13" x2="-882.85" y2="570.13" gradientTransform="translate(16984.23 -26165.91) rotate(-90) scale(29.66 -29.66)" xlink:href="#Gradiente_sem_nome_25"/>
    <linearGradient id="Gradiente_sem_nome_25-18" data-name="Gradiente sem nome 25" x1="-883.84" y1="570.15" x2="-882.84" y2="570.15" gradientTransform="translate(16998.29 -26185.18) rotate(-90) scale(29.68 -29.68)" xlink:href="#Gradiente_sem_nome_25"/>
    <linearGradient id="Gradiente_sem_nome_25-19" data-name="Gradiente sem nome 25" x1="-884.51" y1="568.93" x2="-883.51" y2="568.93" gradientTransform="translate(16345.29 -25194.97) rotate(-90) scale(28.54 -28.54)" xlink:href="#Gradiente_sem_nome_25"/>
    <linearGradient id="Gradiente_sem_nome_25-20" data-name="Gradiente sem nome 25" x1="-883.85" y1="570.12" x2="-882.85" y2="570.12" gradientTransform="translate(17002.26 -26161.77) rotate(-90) scale(29.66 -29.66)" xlink:href="#Gradiente_sem_nome_25"/>
    <linearGradient id="Gradiente_sem_nome_25-21" data-name="Gradiente sem nome 25" x1="-884.83" y1="568.33" x2="-883.83" y2="568.33" gradientTransform="translate(16004.72 -24733.58) rotate(-90) scale(28.01 -28.01)" xlink:href="#Gradiente_sem_nome_25"/>
    <linearGradient id="Gradiente_sem_nome_25-22" data-name="Gradiente sem nome 25" x1="-883.85" y1="570.13" x2="-882.85" y2="570.13" gradientTransform="translate(16997.56 -26164.73) rotate(-90) scale(29.66 -29.66)" xlink:href="#Gradiente_sem_nome_25"/>
    <linearGradient id="Gradiente_sem_nome_25-23" data-name="Gradiente sem nome 25" x1="-883.85" y1="570.12" x2="-882.85" y2="570.12" gradientTransform="translate(16978.13 -26160.15) rotate(-90) scale(29.65 -29.65)" xlink:href="#Gradiente_sem_nome_25"/>
    <clipPath id="clippath-1">
      <rect class="cls-13" width="161.01" height="70.05"/>
    </clipPath>
    <linearGradient id="Gradiente_sem_nome_27" data-name="Gradiente sem nome 27" x1="-881.52" y1="585.56" x2="-880.52" y2="585.56" gradientTransform="translate(16805.27 -49649.45) rotate(-105) scale(49.57 -49.57)" gradientUnits="userSpaceOnUse">
      <stop offset="0" stop-color="#b1b3b6"/>
      <stop offset=".35" stop-color="#dcddde"/>
      <stop offset=".65" stop-color="#dcddde"/>
      <stop offset="1" stop-color="#b1b3b6"/>
    </linearGradient>
    <linearGradient id="Gradiente_sem_nome_27-2" data-name="Gradiente sem nome 27" x1="-881.59" y1="585.49" x2="-880.59" y2="585.49" gradientTransform="translate(16755.92 -49443.58) rotate(-105) scale(49.33 -49.33)" xlink:href="#Gradiente_sem_nome_27"/>
    <linearGradient id="Gradiente_sem_nome_28" data-name="Gradiente sem nome 28" x1="-855.52" y1="621.8" x2="-854.52" y2="621.8" gradientTransform="translate(-26355.23 36402.28) rotate(90) scale(42.53 -42.53)" gradientUnits="userSpaceOnUse">
      <stop offset="0" stop-color="#fff"/>
      <stop offset=".69" stop-color="#f8f8f8"/>
      <stop offset=".8" stop-color="#d1d3d4"/>
      <stop offset="1" stop-color="#bcbec0"/>
    </linearGradient>
    <linearGradient id="Gradiente_sem_nome_30" data-name="Gradiente sem nome 30" x1="-843.69" y1="643.38" x2="-842.69" y2="643.38" gradientTransform="translate(-13470.78 17824.68) rotate(90) scale(21.09 -21.09)" gradientUnits="userSpaceOnUse">
      <stop offset="0" stop-color="#fff"/>
      <stop offset=".69" stop-color="#ececed"/>
      <stop offset=".8" stop-color="#e6e7e8"/>
      <stop offset="1" stop-color="#d1d3d4"/>
    </linearGradient>
    <linearGradient id="Gradiente_sem_nome_30-2" data-name="Gradiente sem nome 30" x1="-850.24" y1="631.43" x2="-849.24" y2="631.43" gradientTransform="translate(-18391.73 24897.74) rotate(90) scale(29.26 -29.26)" xlink:href="#Gradiente_sem_nome_30"/>
  </defs>
  <g id="svg2">
    <g id="g352">
      <g class="cls-34">
        <g id="g354">
          <g id="g360">
            <path id="path362" class="cls-25" d="M146.54,34.78c.02.1.04.2.05.3-.01-.1-.03-.2-.05-.3M91.36,15.57c-30.82,0-55.52,9.24-55.52,20.82s24.91,20.82,55.52,20.82,55.52-9.34,55.52-20.82-24.91-20.82-55.52-20.82"/>
          </g>
        </g>
      </g>
    </g>
    <g id="g364">
      <g id="g366">
        <g id="g372">
          <g id="g374">
            <path id="path388" class="cls-24" d="M36.69,36.38c0,11.04,24.47,19.98,54.67,19.98h0c30.2,0,54.67-8.93,54.67-19.98h0c0-11.05-24.46-19.97-54.67-19.97h0c-30.2,0-54.67,8.93-54.67,19.97"/>
          </g>
        </g>
      </g>
    </g>
    <g id="g390">
      <g id="g392">
        <g id="g398">
          <g id="g400">
            <path id="path410" class="cls-17" d="M40.81,36.39c0,.75.15,1.48.44,2.21h0c-.13-.48-.19-.96-.19-1.45h0c0-9.14,22.63-16.55,50.55-16.55h0c25.68,0,46.89,6.27,50.12,14.39h0c-2.15-8.55-23.88-15.26-50.37-15.26h0c-27.92,0-50.55,7.46-50.55,16.66"/>
          </g>
        </g>
      </g>
    </g>
    <g id="g412">
      <g id="g414">
        <g id="g420">
          <g id="g422">
            <path id="path432" class="cls-2" d="M143.74,36.39c0,10.07-23.45,18.23-52.39,18.23h0c-25.75,0-47.16-6.47-51.56-14.98h0c3.35,8.87,25.32,15.72,51.94,15.72h0c28.93,0,52.38-8.09,52.38-18.08h0c0-1.01-.24-2.01-.7-2.97h0c.22.69.34,1.38.34,2.09"/>
          </g>
        </g>
      </g>
    </g>
    <g id="g434">
      <g id="g436">
        <g id="g442">
          <g id="g444">
            <path id="path454" class="cls-11" d="M101.12,38.15c-1.18,1.22-1.26,2.8-.49,3.51h0c.27.25.59.37.93.39h0c-.5-.64-.74-1.88-.11-2.86h0c-.12-.29-.14-.62-.07-.95h0c.02-.08-.05-.15-.13-.15h0s-.08.02-.12.06"/>
          </g>
        </g>
      </g>
    </g>
    <g id="g456">
      <g id="g458">
        <g id="g464">
          <g id="g466">
            <path id="path476" class="cls-28" d="M113.22,40.76c.02.18.07.53.11.79h0c.06-.12.12-.24.19-.37h0c.05-.1.02-.13-.02-.15h0c-.12-.04-.25-.14-.26-.23h0s-.01-.03-.01-.05h0Z"/>
          </g>
        </g>
      </g>
    </g>
    <g id="g478">
      <g id="g480">
        <g id="g486">
          <g id="g488">
            <path id="path498" class="cls-31" d="M114.65,36.76c.39.37.63.83.67,1.25h0c.02.2.17.22.29.05h0s.07-.11.11-.17h0s-.07-.09-.11-.14h0c-.17-.2-.58-.64-.97-.98h0Z"/>
          </g>
        </g>
      </g>
    </g>
    <g id="g500">
      <g id="g502">
        <g id="g508">
          <g id="g510">
            <path id="path520" class="cls-18" d="M98.41,35.99c.31.43.46,1.04.44,1.83h0c0,.2.14.19.24.05h0c.05-.08.11-.15.16-.22h0c-.23-.71-.59-1.4-.84-1.66Z"/>
          </g>
        </g>
      </g>
    </g>
    <g id="g552">
      <g id="g554">
        <g id="g560">
          <g id="g562">
            <path id="path572" class="cls-9" d="M109.23,40.09c-1.09,1.35-1.68,2.71-1.71,4.05h0c0,.47.17,1.06.59,1.27h0c.14.07.27.12.42.15h0c-.05-.19-.07-.38-.07-.54h0c-.01-1.37.41-2.75,1.51-4.09h0c1.33-1.63,2.72-2.45,3.69-2h0c-.05-.36-.23-.67-.65-.86h0c-.18-.09-.37-.13-.58-.13h0c-.92,0-2.11.81-3.2,2.16"/>
          </g>
        </g>
      </g>
    </g>
    <g id="g574">
      <g id="g576">
        <g id="g582">
          <g id="g584">
            <path id="path594" class="cls-3" d="M87.26,37.24c-1.49.56-2.98,1.44-4.01,2.82h0c-1.17,1.57-1.48,3.45-.7,4.53h0c.18.25.41.45.65.57h0c-.42-1.3-.12-3.04.88-4.37h0c1.02-1.39,2.17-1.91,3.48-2.47h0c.17-.08.19-.17.16-.33h0c-.06-.26-.24-.91-.3-1.06h0c.04.14,0,.25-.17.31"/>
          </g>
        </g>
      </g>
    </g>
    <g id="g596">
      <g id="g598">
        <g id="g604">
          <g id="g606">
            <path id="path616" class="cls-32" d="M98.36,41.41c-1.38,2.11-2.68,4.16-4.05,6.31h0c-.07.1-.13.16-.27.17h0c-.85,0-1.78,0-2.71,0h0c-.1,0-.17-.05-.19-.11h0c.07.33.19.92.23,1.06h0c.02.09.09.14.2.14h0c1.01,0,2.24,0,3.07,0h0c.12,0,.21-.08.27-.17h0c1.25-1.95,2.58-4.08,3.86-6.04h0c.28.99.42,1.45.95,1.91h0c.53.47,1.02.6,1.74.6h0c.66,0,1.3-.25,2.07-.57h0c.27-.11.52-.25.74-.4h0c0-.36.03-.73.1-1.08h0s-.03-.28-.24-.13h0c-.35.25-.82.53-1.39.75h0c-.71.26-1.04.36-1.69.35h0c-.83,0-1.57-.35-2.09-1.17h0c-.29-.44-.41-1.11-.44-1.6h0s-.03-.09-.07-.09h0s-.05.02-.08.06"/>
          </g>
        </g>
      </g>
    </g>
    <g id="g618">
      <g id="g620">
        <g id="g626">
          <g id="g628">
            <path id="path638" class="cls-15" d="M122.2,42.5c-1.32,1.61-2.78,3.14-4.18,4.22h0c-2.17,1.68-4.35,2.11-5.42,1.03h0c-.4-.4-.62-.98-.65-1.46h0c-.01-.26-.15-.28-.27-.16h0c-1.28,1.27-3.51,2.68-5.54,1.68h0c-1.03-.51-1.57-1.45-1.78-2.5h0c.13.76.29,1.83.65,2.5h0c.23.44.75.95,1.07,1.1h0c1.8.89,4.37-.12,6.02-1.71h0s.02-.02.05-.05h0c.07.29.17.63.18.68h0c.11.37.29.7.45.88h0c1.13,1.28,3.53.7,6.02-1.23h0c1.39-1.08,2.43-2.16,3.69-3.64h0c.05-.06.05-.15.02-.29h0c-.07-.32-.19-.9-.25-1.19h0c0,.05-.02.1-.05.13M104.34,45.26s0,.02,0,.02h0s0-.02,0-.02ZM104.35,45.3s0,0,0,0h0s0,0,0-.01h0s0,.01,0,.02M104.35,45.32s0-.01,0-.02h0s0,.01,0,.02"/>
          </g>
        </g>
      </g>
    </g>
    <g id="g640">
      <g id="g642">
        <g id="g648">
          <g id="g650">
            <path id="path660" class="cls-26" d="M104.99,38.06c-.13.81-.56,1.51-1.3,1.88h0c-.63.31-1.36.25-1.87-.21h0c-.16-.15-.28-.32-.36-.51h0c.13.61.25,1.05.41,1.29h0c.48.73,1.32.91,2.24.41h0c.67-.36,1.26-1.13,1.18-2.37h0c-.04-.62-.22-1.26-.51-1.77h0c.2.38.28.81.21,1.27"/>
          </g>
        </g>
      </g>
    </g>
    <g id="g662">
      <g id="g664">
        <g id="g670">
          <g id="g672">
            <path id="path682" class="cls-20" d="M124,30.31h0s0,0,0,0M124,30.32s0,0,0-.01h0s0,0,0,.01M123.98,30.42c-.42.73-8.55,13.11-9.07,14.39h0c-.16.41-.18.72-.02.94h0c.17.23.41.31.69.31h0c.03-.16.09-.33.16-.52h0c.51-1.28,8.13-12.86,8.55-13.59h0c.03-.06.02-.14.01-.18h0c-.03-.11-.27-1.28-.3-1.45h0s0,.07-.02.1"/>
          </g>
        </g>
      </g>
    </g>
    <g id="g684">
      <g id="g686">
        <g id="g692">
          <g id="g694">
            <path id="path704" class="cls-12" d="M90.22,36.18s.04.05.06.07h0c.49.73.76,1.75.78,2.81h0c.03.23.13.23.23.11h0c.1-.1.19-.21.29-.31h0c-.14-.57-.36-1.08-.59-1.57h0c-.08-.18-.46-.82-.78-1.12Z"/>
          </g>
        </g>
      </g>
    </g>
    <g id="g706">
      <g id="g708">
        <g id="g714">
          <g id="g716">
            <path id="path726" class="cls-6" d="M94.37,38.63c-1.76,1.33-3.23,3.4-3.98,4.33h0c-.44.54-.85,1.35-2.01,2.6h0c-1.81,1.96-4.2,3.09-6.52,2.31h0c-1.26-.42-2.17-1.44-2.52-2.68h0c-.07-.24-.2-.31-.34-.15h0c-.37.47-1.14,1.15-1.78,1.58h0c-.07.05-.24.15-.39.08h0c-.13-.06-.61-.73-.7-.92h0s-.02-.04-.02-.06h0c.16.83.19.93.41,1.31h0c.25.42.5.72.56.74h0c.15.08.3,0,.38-.03h0c.49-.26,1.46-1,1.88-1.51h0c.13-.12.25-.04.29.09h0c.17.55.43.98.71,1.43h0c.31.5.94,1.02,1.74,1.24h0c1.05.29,2.18.35,3.66-.22h0c1.19-.46,2.44-1.39,3.4-2.43h0c1.15-1.25,1.57-2.05,2.01-2.6h0c.74-.92,1.91-2.56,3.54-3.95h0c.57-.49,1.19-.8,1.58-.65h0c.24-.61.12-.94-.13-1.1h0c-.08-.05-.19-.08-.3-.08h0c-.41,0-.98.31-1.48.69"/>
          </g>
        </g>
      </g>
    </g>
    <g id="g728">
      <g id="g730">
        <g id="g736">
          <g id="g738">
            <path id="path748" class="cls-1" d="M65.18,36.97c-.99.51-2.17,1.37-2.76,2.54h0c-.48.96-.57,2.12.15,3.22h0c.06.09.13.18.2.26h0c-.23-.91.02-1.9.39-2.63h0c.59-1.18,1.4-1.74,2.21-2.25h0c.35-.22.5-.43.29-1.01h0c-.06-.16-.09-.46-.16-.72h0c.02.25-.1.48-.33.59"/>
          </g>
        </g>
      </g>
    </g>
    <g id="g750">
      <g id="g752">
        <g id="g758">
          <g id="g760">
            <path id="path770" class="cls-14" d="M72.63,25.14c-2.85,1.06-4.1,3.33-3.5,4.84h0c.12.29.3.51.54.67h0c-.2-1.39.84-3.68,3.58-4.58h0c3.58-1.18,7.58-.43,10.8.25h0c.45-.28.84-.48,1.24-.69h0c.2-.1-.02-.22-.08-.22h0c-2.57-.48-5.21-1.05-7.82-1.05h0c-1.6,0-3.19.21-4.75.79"/>
          </g>
        </g>
      </g>
    </g>
    <g id="g772">
      <g id="g774">
        <g id="g780">
          <g id="g782">
            <path id="path792" class="cls-5" d="M84.58,33.62c-1.29.08-3.31.27-4.67.44h0c-.33.04-.38.1-.45.21h0c-2.17,3.59-4.5,7.46-7.05,10.05h0c-2.74,2.78-5.01,3.51-7.42,3.53h0c-2.79.02-5.27-1.56-5.89-4.33h0c.33,1.55,1.33,3.41,2.49,4.23h0c1.18.83,2.33,1.1,3.68,1.13h0c2.74.05,5.25-1.08,7.91-3.78h0c2.55-2.59,4.76-6.2,6.94-9.79h0c.07-.13.15-.18.51-.23h0c1.37-.17,2.59-.25,3.8-.36h0c.36-.03.63-.07.77.06h0c.43.44.94.83,1.28,1.03h0c.22,0,.41.05.54.17h0c.14-.02.27-.1.35-.18h0c.16-.15.17-.33.14-.49h0c-.05-.3-.13-.88-.23-1.05h0c.07.13.02.31-.11.46h0c-.1.11-.24.22-.43.21h0c-.15,0-.25-.06-.45-.17h0c-.41-.22-.91-.58-1.25-1h0c-.09-.11-.14-.14-.29-.14h0s-.1,0-.17,0"/>
          </g>
        </g>
      </g>
    </g>
    <g id="g794">
      <g id="g796">
        <g id="g802">
          <g id="g804">
            <path id="path814" class="cls-16" d="M72.8,35.79c-.3.22-.73.19-.92-.1h0c-.06-.1-.09-.21-.09-.31h0c-.03.47.16,1.15.31,1.38h0c.16.25.63.38,1,.11h0c.83-.61,1.58-.97,2.43-1.13h0c.21-.29.45-.62.72-.99h0s.03-.07.02-.09h0s-.04-.04-.09-.05h0c-1.23.03-2.31.4-3.35,1.18"/>
          </g>
        </g>
      </g>
    </g>
    <g id="g816">
      <g id="g818">
        <g id="g824">
          <g id="g826">
            <path id="path836" class="cls-8" d="M107.47,24.37s.03.05.05.08h0s-.03-.06-.05-.08Z"/>
          </g>
        </g>
      </g>
    </g>
    <g id="g838">
      <g id="g840">
        <g id="g846">
          <g id="g848">
            <path id="path858" class="cls-29" d="M107.6,24.9c-.05.79-.66,1.56-2.18,2.39h0c-1.73.95-3.53,1.23-5.41,1.25h0c-4.55.04-8.8-1.74-13.19-2.69h0c0,.19.05.42-.11.54h0c-2.43,1.79-4.63,3.62-6.1,6.17h0c-.05.06-.02.12.07.11h0c.39-.02.76-.04,1.13-.06h0c1.34-2.1,2.78-3.3,4.97-4.92h0c.16-.12.33-.21.27-.68h0c4.4.98,7.75,2.6,13.44,2.61h0c1.7,0,4.09-.56,5.38-1.34h0c1.48-.89,1.87-1.54,1.93-2.24h0c.02-.21-.04-.54-.08-.7h0c-.05-.23-.09-.53-.15-.75h0c.02.09.03.19.03.31"/>
          </g>
        </g>
      </g>
    </g>
    <g id="g860">
      <g id="g862">
        <g id="g868">
          <g id="g870">
            <path id="path880" class="cls-22" d="M86.4,30.26c-.05.05-.12.11-.18.16h0c-.43.45-.57,1.05-.5,1.5h0c.03.18.11.22.19.2h0c.08-.01.17-.05.25-.08h0c.03-.25.14-.49.39-.71h0c.18-.16.41-.24.6-.2h0c.17-.33.21-.73.01-.91h0c-.09-.08-.2-.11-.32-.11h0c-.15,0-.3.05-.44.15"/>
          </g>
        </g>
      </g>
    </g>
    <g id="g882">
      <g id="g884">
        <g id="g890">
          <g id="g892">
            <path id="path902" class="cls-19" d="M88.15,31.81c-.42.8-1.11,1.23-1.77,1.43h0s-.14.03-.12.16h0c.02.14.49.44.78.65h0s.1-.03.1-.03h0c.34-.13.91-.48,1.23-1.2h0c.21-.46.32-.82.23-1.61h0c-.07-.55-.18-1.05-.33-1.31h0c.28.58.17,1.33-.14,1.92"/>
          </g>
        </g>
      </g>
    </g>
    <g id="g904">
      <g id="g906">
        <g id="g912">
          <g id="g914">
            <path id="path924" class="cls-27" d="M75.99,28.08c.08.2.08.5-.08.88h0c-1.21,2.83-3.51,5.08-6.31,5.17h0c-1.69.06-2.96-.81-3.55-2.09h0c.43.96,1.32,1.81,2.1,2.3h0c.61.38,1.36.59,2.21.56h0c2.92-.1,5.13-2.51,5.87-4.54h0c.2-.55.05-1.14-.05-1.53h0c-.04-.15-.09-.5-.2-.75h0Z"/>
          </g>
        </g>
      </g>
    </g>
    <g id="g926">
      <g class="cls-33">
        <g id="g928">
          <g id="g934">
            <path id="path936" class="cls-7" d="M146.54,34.78c.02.1.04.2.05.3-.01-.1-.03-.2-.05-.3M36.22,36.62c-.01-2.44,1.06-4.86,3.32-7.14,7.95-8.02,28.77-13.44,51.73-13.53,30.4-.13,55.18,8.94,55.23,20.21.01,2.44-1.13,4.83-3.39,7.1-7.95,8.02-28.71,13.47-51.66,13.56-30.4.13-55.18-8.94-55.23-20.21M91.36,15.57c-30.82,0-55.52,9.24-55.52,20.82s24.91,20.82,55.52,20.82,55.52-9.34,55.52-20.82-24.91-20.82-55.52-20.82"/>
          </g>
        </g>
      </g>
    </g>
    <g id="g938">
      <g id="g940">
        <g id="g946">
          <g id="g948">
            <path id="path960" class="cls-23" d="M36.01,36.39c0,.55.06,1.08.17,1.61h0c-.09-.46-.13-.92-.13-1.38h0c-.01-2.47,1.09-4.96,3.37-7.26h0c7.99-8.06,28.84-13.49,51.85-13.58h0c3.19-.01,6.31.08,9.36.26h0c-3.01-.19-6.11-.29-9.26-.29h0c-30.69,0-55.35,9.2-55.35,20.65"/>
          </g>
        </g>
      </g>
    </g>
    <g id="g962">
      <g id="g964">
        <g id="g970">
          <g id="g972">
            <path id="path984" class="cls-10" d="M146.68,36.17c0,2.47-1.16,4.93-3.44,7.22h0c-7.97,8.04-28.81,13.52-51.78,13.61h0c-3.25.01-6.44-.07-9.53-.26h0c3.07.19,6.22.29,9.44.29h0c30.52,0,55.35-9.31,55.35-20.64h0c0-.43-.04-.86-.11-1.29h0c.05.35.07.7.08,1.06"/>
          </g>
        </g>
      </g>
    </g>
    <g id="g986">
      <g id="g988">
        <g id="g994">
          <g id="g996">
            <path id="path1008" class="cls-30" d="M38.97,36.39c0,10.07,23.46,18.23,52.39,18.23h0c28.93,0,52.39-8.16,52.39-18.23h0c0-10.07-23.45-18.24-52.39-18.24h0c-28.94,0-52.39,8.16-52.39,18.24M40.81,36.39c0-9.2,22.63-16.66,50.55-16.66h0c27.92,0,50.55,7.46,50.55,16.66h0c0,9.2-22.63,16.65-50.55,16.65h0c-27.92,0-50.55-7.45-50.55-16.65"/>
          </g>
        </g>
      </g>
    </g>
    <g id="g1010">
      <g id="g1012">
        <g id="g1018">
          <g id="g1020">
            <path id="path1032" class="cls-21" d="M121.01,30.2c-.21,0-.31.03-.41.22h0c-.32.62-4.24,6.49-4.97,7.63h0c-.12.17-.27.15-.29-.05h0c-.07-.68-.66-1.46-1.58-1.83h0c-.7-.29-1.39-.34-2.1-.24h0c-1.29.17-2.44.85-3.45,1.62h0c-1.52,1.16-2.84,2.66-4.53,3.77h0c-.93.6-2.19,1.13-3.04.34h0c-.77-.71-.68-2.29.49-3.51h0c.12-.13.27-.02.25.09h0c-.11.55.03,1.1.45,1.49h0c.51.46,1.24.51,1.87.21h0c.74-.37,1.17-1.08,1.3-1.88h0c.2-1.25-.76-2.35-1.97-2.44h0c-.98-.07-1.91.27-2.82,1.02h0c-.46.38-.72.66-1.11,1.22h0c-.1.14-.25.15-.24-.05h0c.05-1.6-.62-2.5-1.94-2.53h0c-1.02-.02-2.12.53-2.97,1.21h0c-.93.75-1.75,1.75-2.63,2.68h0c-.11.12-.2.11-.23-.11h0c-.03-1.06-.29-2.08-.78-2.81h0c-.17-.25-.54-.38-.84-.21h0c-.14.08-.63.3-.99.59h0c-.18.15-.25.36-.17.63h0c.47,1.58.37,3.38-.27,4.9h0c-.59,1.39-1.73,2.64-3.08,3.07h0c-.89.28-1.81.15-2.38-.64h0c-.78-1.08-.47-2.97.7-4.53h0c1.03-1.38,2.52-2.26,4.01-2.82h0c.17-.07.21-.18.16-.33h0c-.08-.25-.21-.58-.26-.73h0c-.14-.36-.52-.42-.98-.37h0c-1.08.13-2.05.5-3.01,1.01h0c-2.52,1.35-3.78,3.96-4.34,5.36h0c-.27.67-.5,1.09-.79,1.46h0c-.4.5-.9.95-1.81,1.76h0c-.08.07-.14.23-.07.37h0c.1.19.57.86.7.92h0c.15.07.32-.03.39-.08h0c.64-.43,1.4-1.12,1.78-1.58h0c.13-.16.27-.09.34.15h0c.35,1.24,1.26,2.26,2.52,2.68h0c2.31.78,4.71-.35,6.52-2.31h0c1.15-1.25,1.57-2.05,2.01-2.6h0c.75-.93,2.22-3,3.98-4.33h0c.64-.49,1.4-.86,1.79-.61h0c.31.2.41.66-.09,1.56h0c-1.79,3.27-4.42,7.11-4.9,8.04h0c-.09.16-.01.29.16.29h0c.94,0,1.87,0,2.71,0h0c.14,0,.2-.07.27-.17h0c1.37-2.15,2.67-4.19,4.05-6.31h0c.08-.13.15-.03.15.03h0c.03.49.15,1.16.44,1.6h0c.52.82,1.26,1.17,2.09,1.17h0c.65,0,.99-.09,1.69-.35h0c.57-.21,1.04-.49,1.39-.75h0c.21-.14.24.1.24.13h0c-.32,1.71.08,3.73,1.77,4.57h0c2.03,1,4.26-.41,5.54-1.68h0c.13-.12.26-.11.27.16h0c.03.48.25,1.06.65,1.46h0c1.07,1.08,3.24.65,5.42-1.03h0c1.4-1.08,2.86-2.6,4.18-4.22h0c.05-.06.08-.16,0-.26h0c-.2-.21-.49-.45-.69-.64h0c-.09-.08-.22-.05-.3,0h0c-1.35,1.29-2.57,2.76-4.33,3.97h0c-.59.41-1.54.75-1.97.17h0c-.17-.22-.15-.53.02-.94h0c.51-1.28,8.65-13.66,9.07-14.39h0c.07-.13,0-.22-.17-.22h-2.8ZM108.12,45.41c-.42-.22-.6-.8-.59-1.27h0c.02-1.33.61-2.7,1.71-4.05h0c1.34-1.64,2.81-2.49,3.78-2.03h0c1,.48.68,1.64.23,2.55h0c-.03.07-.04.13-.02.19h0c.02.09.14.19.26.23h0s.07.05.02.15h0c-.35.74-.67,1.17-1.1,1.81h0c-.4.6-.85,1.06-1.39,1.5h0c-.63.53-1.45,1.08-2.23,1.08h0c-.23,0-.46-.05-.67-.16"/>
          </g>
        </g>
      </g>
    </g>
    <g id="g1034">
      <g id="g1036">
        <g id="g1042">
          <g id="g1044">
            <path id="path1056" class="cls-4" d="M75.44,22.79c-5,.42-9.75,3.24-9.76,7.51h0c0,2.17,1.53,3.92,3.92,3.84h0c2.8-.09,5.11-2.34,6.31-5.17h0c.46-1.07-.39-1.52-.79-.9h0c-.72,1.12-1.73,1.98-2.83,2.52h0c-1.32.65-2.73.47-3.16-.6h0c-.6-1.51.65-3.77,3.5-4.84h0c4.12-1.53,8.43-.52,12.57.26h0c.06,0,.28.13.08.22h0c-.74.41-1.47.73-2.61,1.72h0c-.82.7-1.89,1.63-2.71,2.64h0c-.82,1-1.4,1.89-2.17,2.88h0c-.11.14-.24.14-.24.14h0c-1.88.32-3.71.53-5.39,1.7h0c-.35.24-.5.67-.29.99h0c.19.29.62.32.92.1h0c1.05-.78,2.12-1.15,3.35-1.18h0c.05,0,.08.01.09.05h0s0,.06-.02.09h0c-1.85,2.56-2.31,3.14-3.7,4.73h0c-.71.82-1.41,1.51-2.19,2.22h0c-3.15,2.93-6.55,2.88-7.77,1.04h0c-.73-1.1-.63-2.26-.15-3.22h0c.59-1.18,1.77-2.04,2.76-2.54h0c.36-.19.47-.65.1-1.08h0c-.23-.28-.8-.33-1.22-.25h0c-1.29.24-2.82,1.21-3.72,2.39h0c-1.02,1.32-1.53,2.92-1.36,4.72h0c.31,3.25,2.98,5.12,6.01,5.1h0c2.41-.02,4.68-.75,7.42-3.53h0c2.55-2.59,4.87-6.46,7.05-10.05h0c.07-.11.12-.17.45-.21h0c1.36-.17,3.38-.36,4.67-.44h0c.29-.02.34-.01.46.13h0c.34.43.84.78,1.25,1h0c.2.11.29.16.45.17h0c.19,0,.34-.1.43-.21h0c.14-.15.18-.34.1-.47h0c-.08-.13-.98-.63-1.01-.83h0c-.02-.13.12-.16.12-.16h0c.66-.21,1.35-.63,1.77-1.43h0c.41-.79.48-1.84-.27-2.42h0c-.66-.51-1.65-.43-2.45.28h0c-.78.69-1.03,1.7-.93,2.58h0c.02.15.01.21-.19.22h0c-1.19.09-2.34.13-3.62.19h0c-.09,0-.11-.05-.07-.11h0c1.47-2.56,3.67-4.38,6.1-6.17h0c.16-.12.11-.35.11-.54h0c4.39.95,8.63,2.73,13.19,2.69h0c1.88-.01,3.69-.3,5.41-1.25h0c1.52-.83,2.13-1.59,2.18-2.39h0c.03-.55-.35-.9-.89-.78h0c-4.6,1.06-8.99,1.05-13.57.49h0c-5.2-.63-10.19-1.93-15.36-1.93h0c-.77,0-1.55.03-2.34.09M85.72,31.91c-.07-.49.09-1.14.61-1.6h0c.26-.23.61-.28.83-.1h0c.24.21.13.72-.12,1.08h0c-.27.39-.72.74-1.13.82h0s-.02,0-.03,0h0c-.07,0-.13-.05-.15-.21"/>
          </g>
        </g>
      </g>
    </g>
  </g>
</svg>