<?xml version="1.0" encoding="UTF-8"?><svg id="a" xmlns="http://www.w3.org/2000/svg" viewBox="0 0 1000 1000"><defs><style>.g{fill:#e52521;}</style></defs><g><path id="b" class="g" d="m125.89,708.08l14.74,1.68c6.7.67,7.37,6.37,7.37,9.72v17.42h-68.02v-17.42c0-3.69.67-9.05,7.37-9.72l14.74-1.68v-15.08H13.98v15.08l14.74,1.68c6.7.67,7.37,6.37,7.37,9.72v57.3c0,3.69-.67,9.05-7.37,9.72l-14.74,1.68v14.74h88.12v-14.74l-14.74-1.68c-6.7-.67-7.37-6.37-7.37-9.72v-17.42h68.02v17.42c0,3.69-.67,9.05-7.37,9.72l-14.74,1.68v14.74h88.46v-14.74l-14.74-1.68c-6.7-.67-7.37-6.37-7.37-9.72v-57.3c0-3.69.67-9.05,7.37-9.72l14.74-1.68v-15.08h-88.12v15.08h-.34Zm588.73-14.74h-108.9v15.08l13.07,1.34c4.69.67,7.71,2.68,7.71,9.05v58.3c0,3.69-.67,9.05-7.37,9.72l-14.74,1.68v14.74h110.24c39.54,0,72.04-15.75,72.04-54.95s-32.5-54.95-72.04-54.95h0Zm-8.04,89.13h-36.86v-68.02h36.86c21.78,0,29.15,10.39,29.15,33.84s-7.37,34.18-29.15,34.18Z"/><path id="c" class="g" d="m971.95,786.82c-7.04-.67-9.05-5.36-11.39-8.71l-50.6-77.4c-3.69-5.7-6.37-7.37-11.73-7.37h-83.77v15.08l20.1,2.35c2.68.34,6.7,4.02,3.35,9.38l-37.53,60.98c-1.68,2.35-3.35,5.36-7.71,6.03l-15.08,1.68v14.74h70.37v-15.08l-12.06-1.34c-5.03-.67-8.04-4.02-5.36-8.38l5.7-9.05h67.69l5.03,7.71c4.36,6.7-1.01,9.38-6.03,10.05l-12.4,1.34v15.08h95.5v-14.74l-14.07-2.35h0Zm-123.64-36.52l20.77-33.84,22.11,33.84h-42.89Zm-321.67-42.22l14.74,1.68c6.7.67,7.37,6.37,7.37,9.72v54.95l-58.3-76.73c-2.68-3.69-5.03-4.69-11.06-4.69h-75.73v15.08l14.74,1.68c6.7.67,7.37,6.37,7.37,9.72v57.3c0,3.69-.67,9.05-7.37,9.72l-14.74,1.68v14.74h70.37v-14.74l-14.74-1.68c-6.7-.67-7.37-6.37-7.37-9.72v-54.95l58.3,76.73c2.68,3.69,5.03,4.69,11.06,4.69h53.61v-83.77c0-3.69.67-9.05,7.37-9.72l14.74-1.68v-15.08h-70.37v15.08h0Zm-217.8-18.43c-71.71,0-90.13,31.5-90.13,58.97s18.43,58.97,90.13,58.97,90.13-31.5,90.13-58.97-18.43-58.97-90.13-58.97Zm0,96.5c-27.81,0-39.2-11.73-39.2-37.86s11.73-37.86,39.2-37.86,39.2,11.73,39.2,37.86-11.39,37.86-39.2,37.86Z"/></g><g id="d"><path id="e" class="g" d="m622.13,228.59c-12.06,54.28-17.09,79.08-26.81,118.28-9.38,37.53-16.75,72.71-29.49,89.46-12.73,17.09-30.16,20.77-41.88,22.11-6.03.67-10.39,1.01-23.46,1.01s-17.42-.34-23.46-1.01c-11.73-1.34-28.82-5.03-41.88-22.11-12.73-17.09-20.1-51.94-29.49-89.46-9.72-39.2-14.74-64-26.81-118.28,0,0-12.06.34-17.42,1.01-7.37.67-13.07,1.01-19.1,2.01,0,0,7.04,111.24,10.05,158.49,3.35,49.59,9.05,133.36,14.74,196.35,0,0,10.05,1.68,27.14,2.68,17.76,1.01,25.8,1.01,25.8,1.01,7.37-27.81,16.42-66.34,26.47-82.76,8.38-13.4,21.11-14.74,28.48-15.75,11.39-1.68,21.11-1.68,25.47-1.68s14.07,0,25.47,1.68c7.37,1.01,20.1,2.35,28.48,15.75,10.39,16.42,19.43,54.95,26.47,82.76,0,0,8.04,0,25.8-1.01,16.75-1.01,27.14-2.68,27.14-2.68,5.36-62.99,11.39-146.76,14.74-196.35,3.02-47.25,10.05-158.49,10.05-158.49-6.03-.67-11.73-1.34-19.1-2.01-5.36-.67-17.42-1.01-17.42-1.01Z"/><path id="f" class="g" d="m762.53,294.26c-7.04-70.7-54.28-85.78-95.83-92.48-20.77-3.35-57.97-6.37-81.76-7.37-20.77-1.34-69.7-2.01-84.44-2.01s-63.66.67-84.44,2.01c-23.79,1.01-60.98,4.02-81.76,7.37-41.55,7.04-88.46,21.78-95.83,92.48-2.01,19.43-2.68,44.56-2.01,71.37.67,44.9,4.36,75.06,6.7,96.17,1.34,14.41,7.37,57.63,15.08,80.08,10.72,30.83,20.1,39.54,31.5,48.92,20.44,16.75,54.28,21.78,61.32,23.12,38.2,6.7,115.27,8.04,149.44,8.04s111.24-1.34,149.44-8.04c7.04-1.34,40.88-6.37,61.32-23.12,11.06-9.05,20.77-18.09,31.5-48.92,7.71-22.45,13.74-65.67,15.08-80.08,2.35-21.11,6.03-51.27,6.7-96.17.67-27.14,0-52.27-2.01-71.37h0Zm-25.8,118.62c-4.02,56.63-9.05,90.47-16.42,114.93-6.37,21.44-14.07,35.85-25.47,46.24-19.1,17.09-45.24,21.11-60.65,23.12-33.17,5.03-89.46,6.7-133.36,6.7s-100.19-1.68-133.36-6.7c-15.41-2.35-41.55-6.03-60.65-23.12-11.39-10.39-19.1-24.8-25.47-46.24-7.04-24.46-12.06-58.3-16.42-114.93-2.68-34.18-2.01-89.13,1.68-118.95,5.7-44.23,27.48-66.34,74.72-74.72,22.11-4.02,51.6-6.7,79.41-8.04,22.45-1.68,59.31-2.35,80.08-2.01,20.77-.34,57.63.67,80.08,2.01,28.15,1.34,57.63,4.02,79.41,8.04,46.91,8.38,69.03,30.49,74.72,74.72,3.69,29.82,4.02,85.11,1.68,118.95h0Z"/></g></svg>